<svg  xmlns="http://www.w3.org/2000/svg" viewBox="0 0 278.22 85.82"><title>Logo-Partoo-2020</title><path d="M232.4,37.85a5.24,5.24,0,0,0-1.65.27,2.38,2.38,0,0,1,.37,1.26,2.31,2.31,0,0,1-3.58,1.94,5.35,5.35,0,0,0-.27,1.66,5.13,5.13,0,1,0,5.13-5.13Z" style="fill:#101d34"></path><path d="M261.13,37.85a5.35,5.35,0,0,0-1.66.27,2.31,2.31,0,0,1-3.2,3.2A5.35,5.35,0,0,0,256,43a5.13,5.13,0,1,0,5.13-5.13Z" style="fill:#101d34"></path><path d="M114.83,25.91a17,17,0,0,0-10.46,3.58v-.32a3.27,3.27,0,0,0-3.26-3.26h-.06a3.27,3.27,0,0,0-3.26,3.26V42c0,.31,0,.63,0,.95s0,.63,0,.94v27.6a3.27,3.27,0,0,0,3.26,3.26h.06a3.27,3.27,0,0,0,3.26-3.26V56.46a17.07,17.07,0,1,0,10.46-30.55Zm0,27.5A10.44,10.44,0,1,1,125.26,43,10.45,10.45,0,0,1,114.83,53.41Z" style="fill:#2b3b55"></path><path d="M165.49,25.91a3.3,3.3,0,0,0-3.29,3.29v.32a17.07,17.07,0,1,0,0,26.91v.32a3.29,3.29,0,1,0,6.58,0V29.2A3.3,3.3,0,0,0,165.49,25.91Zm-13.78,27.5A10.44,10.44,0,1,1,162.15,43,10.44,10.44,0,0,1,151.71,53.41Z" style="fill:#2b3b55"></path><path d="M216.77,28.58a3.3,3.3,0,0,0-3.29-3.29h-7.21V13.64a3.29,3.29,0,1,0-6.57,0V56.75a3.29,3.29,0,1,0,6.57,0V31.87h7.21A3.3,3.3,0,0,0,216.77,28.58Z" style="fill:#2b3b55"></path><path d="M192.67,25.91a14.75,14.75,0,0,0-10.26,4.23V29.2a3.29,3.29,0,1,0-6.58,0V56.75a3.29,3.29,0,1,0,6.58,0V41.93c.71-1.79,4.09-9.39,10.26-9.39a3.32,3.32,0,1,0,0-6.63Z" style="fill:#2b3b55"></path><path d="M261.13,25.91a17.05,17.05,0,0,0-14.37,7.87,17.07,17.07,0,1,0,0,18.39,17.06,17.06,0,1,0,14.37-26.26ZM232.4,53.41A10.44,10.44,0,1,1,242.83,43,10.45,10.45,0,0,1,232.4,53.41Zm28.73,0A10.44,10.44,0,1,1,271.56,43,10.45,10.45,0,0,1,261.13,53.41Z" style="fill:#2b3b55"></path><path d="M97.79,42v1.89a17,17,0,0,0,6.58,12.54v-27A17,17,0,0,0,97.79,42Z" style="fill:#101d34"></path><path d="M162.2,29.52V56.43a17,17,0,0,0,0-26.91Z" style="fill:#101d34"></path><path d="M203,25.29a3.29,3.29,0,0,0,0,6.58h3.29V25.29Z" style="fill:#101d34"></path><path d="M182.41,30.14V41.93c-.09.23-.14.37-.14.38a3.33,3.33,0,0,1-3.15,2.27,3.21,3.21,0,0,1-1.05-.17,3.32,3.32,0,0,1-2.24-2.79v-.77a4.75,4.75,0,0,1,.14-.63A27,27,0,0,1,182.41,30.14Z" style="fill:#101d34"></path><path d="M246.76,33.78a17,17,0,0,0,0,18.39,17,17,0,0,0,0-18.39Z" style="fill:#101d34"></path><circle cx="31.48" cy="31.48" r="31.48" style="fill:#0085f2"></circle><circle cx="31.48" cy="54.35" r="31.48" style="fill:#00eba9"></circle><circle cx="51.29" cy="42.91" r="31.48" style="fill:#ff9600"></circle><path d="M26.73,62.59a31.44,31.44,0,0,1,0-39.36A31.49,31.49,0,0,0,2.15,42.91,31.49,31.49,0,0,0,26.73,62.59Z" style="fill:#15a2ff"></path><path d="M26.73,23.23a31,31,0,0,1,4.75-.36,31.47,31.47,0,0,1,29.33,20A31.47,31.47,0,0,0,56,11.79a32.39,32.39,0,0,0-4.75-.35A31.39,31.39,0,0,0,26.73,23.23Z" style="fill:#ad46ff"></path><path d="M60.81,42.91A31.47,31.47,0,0,1,31.48,63a31,31,0,0,1-4.75-.36,31.39,31.39,0,0,0,24.56,11.8A32.38,32.38,0,0,0,56,74a31.47,31.47,0,0,0,4.77-31.12Z" style="fill:#ffba01"></path><path d="M31.48,22.87a31,31,0,0,0-4.75.36,31.44,31.44,0,0,0,0,39.36,31,31,0,0,0,4.75.36,31.47,31.47,0,0,0,29.33-20A31.47,31.47,0,0,0,31.48,22.87Z" style="fill:#8a78ff"></path><path d="M38.09,24.63A18.28,18.28,0,1,0,56.37,42.91,18.28,18.28,0,0,0,38.09,24.63Zm0,27.84a9.53,9.53,0,0,1-9-12.64,4.23,4.23,0,0,0,2.35.71,4.32,4.32,0,0,0,4.31-4.32,4.24,4.24,0,0,0-.7-2.34,9.26,9.26,0,0,1,3.08-.52,9.56,9.56,0,1,1,0,19.11Z" style="fill:#fff"></path></svg>